<svg xmlns="http://www.w3.org/2000/svg" viewBox="0 0 16 16">
  <!-- Eye of Ender - Minecraft style -->

  <!-- Outer dark teal edge -->
  <rect x="4" y="1" width="2" height="1" fill="#0d4a4a"/>
  <rect x="6" y="1" width="4" height="1" fill="#0d4a4a"/>
  <rect x="10" y="1" width="2" height="1" fill="#0d4a4a"/>

  <rect x="3" y="2" width="1" height="1" fill="#0d4a4a"/>
  <rect x="12" y="2" width="1" height="1" fill="#0d4a4a"/>

  <rect x="2" y="3" width="1" height="2" fill="#0d4a4a"/>
  <rect x="13" y="3" width="1" height="2" fill="#0d4a4a"/>

  <rect x="1" y="5" width="1" height="6" fill="#0d4a4a"/>
  <rect x="14" y="5" width="1" height="6" fill="#0d4a4a"/>

  <rect x="2" y="11" width="1" height="2" fill="#0d4a4a"/>
  <rect x="13" y="11" width="1" height="2" fill="#0d4a4a"/>

  <rect x="3" y="13" width="1" height="1" fill="#0d4a4a"/>
  <rect x="12" y="13" width="1" height="1" fill="#0d4a4a"/>

  <rect x="4" y="14" width="8" height="1" fill="#0d4a4a"/>

  <!-- Main teal/cyan body -->
  <rect x="4" y="2" width="8" height="1" fill="#0ead8f"/>
  <rect x="3" y="3" width="10" height="2" fill="#0ead8f"/>
  <rect x="2" y="5" width="12" height="6" fill="#0ead8f"/>
  <rect x="3" y="11" width="10" height="2" fill="#0ead8f"/>
  <rect x="4" y="13" width="8" height="1" fill="#0ead8f"/>

  <!-- Lighter highlight -->
  <rect x="4" y="3" width="3" height="1" fill="#2febc2"/>
  <rect x="3" y="4" width="2" height="1" fill="#2febc2"/>
  <rect x="2" y="5" width="2" height="2" fill="#2febc2"/>

  <!-- Dark pupil center (vertical slit) -->
  <rect x="7" y="4" width="2" height="8" fill="#050d14"/>
  <rect x="6" y="5" width="4" height="6" fill="#0a1628"/>
  <rect x="7" y="5" width="2" height="6" fill="#050d14"/>

  <!-- Pupil inner glow/detail -->
  <rect x="6" y="6" width="1" height="4" fill="#1a3a2a"/>
  <rect x="9" y="6" width="1" height="4" fill="#1a3a2a"/>

  <!-- Small highlight in pupil -->
  <rect x="6" y="5" width="1" height="1" fill="#4ade80"/>
</svg>
